<svg width="53" height="53" viewBox="0 0 53 53" fill="none" xmlns="http://www.w3.org/2000/svg">
<rect width="52.8" height="53" rx="26.4" fill="#222222"/>
<path d="M22.8011 32.304V31.9716C22.8097 30.429 22.9545 29.2017 23.2358 28.2898C23.5256 27.3778 23.9347 26.6449 24.4631 26.0909C24.9915 25.5284 25.6349 25.0128 26.3935 24.544C26.9134 24.2202 27.3778 23.8665 27.7869 23.483C28.2045 23.0909 28.5327 22.6562 28.7713 22.179C29.0099 21.6932 29.1293 21.152 29.1293 20.5554C29.1293 19.8821 28.9716 19.2983 28.6562 18.804C28.3409 18.3097 27.9148 17.9261 27.3778 17.6534C26.8494 17.3807 26.2571 17.2443 25.6009 17.2443C24.9957 17.2443 24.4205 17.3764 23.875 17.6406C23.3381 17.8963 22.8906 18.2884 22.5327 18.8168C22.1832 19.3366 21.9872 19.9972 21.9446 20.7983H17.3935C17.4361 19.179 17.8281 17.8239 18.5696 16.733C19.3196 15.642 20.3082 14.8239 21.5355 14.2784C22.7713 13.733 24.1349 13.4602 25.6264 13.4602C27.2543 13.4602 28.6861 13.7457 29.9219 14.3168C31.1662 14.8878 32.1335 15.7017 32.8239 16.7585C33.5227 17.8068 33.8722 19.0511 33.8722 20.4915C33.8722 21.4631 33.7145 22.3324 33.3991 23.0994C33.0923 23.8665 32.6534 24.5483 32.0824 25.1449C31.5114 25.7415 30.8338 26.2741 30.0497 26.7429C29.3594 27.169 28.7926 27.6122 28.3494 28.0724C27.9148 28.5327 27.5909 29.0739 27.3778 29.696C27.1733 30.3097 27.0668 31.0682 27.0582 31.9716V32.304H22.8011ZM25.0256 40.2812C24.2585 40.2812 23.598 40.0085 23.044 39.4631C22.4901 38.9176 22.2131 38.2528 22.2131 37.4688C22.2131 36.7017 22.4901 36.0455 23.044 35.5C23.598 34.9545 24.2585 34.6818 25.0256 34.6818C25.7841 34.6818 26.4403 34.9545 26.9943 35.5C27.5568 36.0455 27.8381 36.7017 27.8381 37.4688C27.8381 37.9886 27.706 38.4616 27.4418 38.8878C27.1861 39.3139 26.8452 39.6548 26.419 39.9105C26.0014 40.1577 25.5369 40.2812 25.0256 40.2812Z" fill="white"/>
</svg>
